<mxfile host="Electron" modified="2023-05-07T16:02:46.568Z" agent="Mozilla/5.0 (Macintosh; Intel Mac OS X 10_15_7) AppleWebKit/537.36 (KHTML, like Gecko) draw.io/21.2.8 Chrome/112.0.5615.165 Electron/24.2.0 Safari/537.36" etag="zqPVuCN7kD2VYZ5YfCmE" version="21.2.8" type="device">
  <diagram name="Page-1" id="ZQaP6m3v3bCAOALgyQ2f">
    <mxGraphModel dx="1242" dy="825" grid="1" gridSize="10" guides="1" tooltips="1" connect="1" arrows="1" fold="1" page="1" pageScale="1" pageWidth="1169" pageHeight="827" math="0" shadow="0">
      <root>
        <mxCell id="0" />
        <mxCell id="1" parent="0" />
        <mxCell id="kzNEx_-M0deKBsbGgkpU-7" style="edgeStyle=orthogonalEdgeStyle;rounded=0;orthogonalLoop=1;jettySize=auto;html=1;entryX=0.5;entryY=1;entryDx=0;entryDy=0;strokeWidth=3;startArrow=classic;startFill=1;" edge="1" parent="1" source="kzNEx_-M0deKBsbGgkpU-1" target="kzNEx_-M0deKBsbGgkpU-4">
          <mxGeometry relative="1" as="geometry" />
        </mxCell>
        <mxCell id="kzNEx_-M0deKBsbGgkpU-11" value="&lt;font style=&quot;font-size: 14px;&quot;&gt;Load public key to validate token signature&lt;/font&gt;" style="edgeLabel;html=1;align=center;verticalAlign=middle;resizable=0;points=[];" vertex="1" connectable="0" parent="kzNEx_-M0deKBsbGgkpU-7">
          <mxGeometry x="0.0333" y="-1" relative="1" as="geometry">
            <mxPoint as="offset" />
          </mxGeometry>
        </mxCell>
        <mxCell id="kzNEx_-M0deKBsbGgkpU-27" value="&lt;div style=&quot;color: rgb(8, 8, 8); font-family: &amp;quot;JetBrains Mono&amp;quot;, monospace;&quot;&gt;&lt;font style=&quot;font-size: 14px;&quot;&gt;http://localhost:9000/oauth2/jwks&lt;/font&gt;&lt;/div&gt;" style="edgeLabel;html=1;align=center;verticalAlign=middle;resizable=0;points=[];" vertex="1" connectable="0" parent="kzNEx_-M0deKBsbGgkpU-7">
          <mxGeometry x="0.0333" y="-1" relative="1" as="geometry">
            <mxPoint x="-1" y="-198" as="offset" />
          </mxGeometry>
        </mxCell>
        <mxCell id="kzNEx_-M0deKBsbGgkpU-9" style="edgeStyle=orthogonalEdgeStyle;rounded=0;orthogonalLoop=1;jettySize=auto;html=1;entryX=0;entryY=0.5;entryDx=0;entryDy=0;strokeWidth=3;" edge="1" parent="1" source="kzNEx_-M0deKBsbGgkpU-1" target="kzNEx_-M0deKBsbGgkpU-3">
          <mxGeometry relative="1" as="geometry" />
        </mxCell>
        <mxCell id="kzNEx_-M0deKBsbGgkpU-10" value="&lt;font style=&quot;font-size: 14px;&quot;&gt;Bearer Token (JWT)&lt;/font&gt;" style="edgeLabel;html=1;align=center;verticalAlign=middle;resizable=0;points=[];" vertex="1" connectable="0" parent="kzNEx_-M0deKBsbGgkpU-9">
          <mxGeometry x="-0.07" y="1" relative="1" as="geometry">
            <mxPoint as="offset" />
          </mxGeometry>
        </mxCell>
        <mxCell id="kzNEx_-M0deKBsbGgkpU-1" value="&lt;font style=&quot;font-size: 18px;&quot;&gt;Spring Cloud Gateway&lt;/font&gt;" style="rounded=1;whiteSpace=wrap;html=1;fillColor=#d5e8d4;strokeColor=#82b366;" vertex="1" parent="1">
          <mxGeometry x="440" y="320" width="200" height="120" as="geometry" />
        </mxCell>
        <mxCell id="kzNEx_-M0deKBsbGgkpU-5" style="edgeStyle=orthogonalEdgeStyle;rounded=0;orthogonalLoop=1;jettySize=auto;html=1;entryX=0;entryY=0.5;entryDx=0;entryDy=0;strokeWidth=3;" edge="1" parent="1" source="kzNEx_-M0deKBsbGgkpU-2" target="kzNEx_-M0deKBsbGgkpU-1">
          <mxGeometry relative="1" as="geometry" />
        </mxCell>
        <mxCell id="kzNEx_-M0deKBsbGgkpU-6" value="&lt;font style=&quot;font-size: 14px;&quot;&gt;Bearer Token (JWT)&lt;/font&gt;" style="edgeLabel;html=1;align=center;verticalAlign=middle;resizable=0;points=[];" vertex="1" connectable="0" parent="kzNEx_-M0deKBsbGgkpU-5">
          <mxGeometry x="-0.0833" y="2" relative="1" as="geometry">
            <mxPoint as="offset" />
          </mxGeometry>
        </mxCell>
        <mxCell id="kzNEx_-M0deKBsbGgkpU-2" value="&lt;font style=&quot;font-size: 18px;&quot;&gt;Client&lt;/font&gt;" style="rounded=1;whiteSpace=wrap;html=1;fillColor=#dae8fc;strokeColor=#6c8ebf;" vertex="1" parent="1">
          <mxGeometry x="40" y="320" width="200" height="120" as="geometry" />
        </mxCell>
        <mxCell id="kzNEx_-M0deKBsbGgkpU-8" style="edgeStyle=orthogonalEdgeStyle;rounded=0;orthogonalLoop=1;jettySize=auto;html=1;entryX=1;entryY=0.5;entryDx=0;entryDy=0;exitX=0.5;exitY=0;exitDx=0;exitDy=0;strokeWidth=3;startArrow=classic;startFill=1;" edge="1" parent="1" source="kzNEx_-M0deKBsbGgkpU-3" target="kzNEx_-M0deKBsbGgkpU-4">
          <mxGeometry relative="1" as="geometry" />
        </mxCell>
        <mxCell id="kzNEx_-M0deKBsbGgkpU-12" value="&lt;font style=&quot;font-size: 14px;&quot;&gt;Load public key to validate token signature&lt;/font&gt;" style="edgeLabel;html=1;align=center;verticalAlign=middle;resizable=0;points=[];" vertex="1" connectable="0" parent="kzNEx_-M0deKBsbGgkpU-8">
          <mxGeometry x="-0.625" y="-4" relative="1" as="geometry">
            <mxPoint as="offset" />
          </mxGeometry>
        </mxCell>
        <mxCell id="kzNEx_-M0deKBsbGgkpU-3" value="&lt;font style=&quot;font-size: 18px;&quot;&gt;Backend Service&lt;/font&gt;" style="rounded=1;whiteSpace=wrap;html=1;fillColor=#fff2cc;strokeColor=#d6b656;" vertex="1" parent="1">
          <mxGeometry x="840" y="320" width="200" height="120" as="geometry" />
        </mxCell>
        <mxCell id="kzNEx_-M0deKBsbGgkpU-4" value="&lt;font style=&quot;font-size: 18px;&quot;&gt;Spring &lt;br&gt;Authorization Server&lt;/font&gt;" style="rounded=1;whiteSpace=wrap;html=1;fillColor=#ffe6cc;strokeColor=#d79b00;" vertex="1" parent="1">
          <mxGeometry x="440" y="80" width="200" height="120" as="geometry" />
        </mxCell>
        <mxCell id="kzNEx_-M0deKBsbGgkpU-16" style="edgeStyle=orthogonalEdgeStyle;rounded=0;orthogonalLoop=1;jettySize=auto;html=1;entryX=0.5;entryY=1;entryDx=0;entryDy=0;exitX=0.25;exitY=1;exitDx=0;exitDy=0;strokeWidth=3;" edge="1" parent="1" source="kzNEx_-M0deKBsbGgkpU-13" target="kzNEx_-M0deKBsbGgkpU-2">
          <mxGeometry relative="1" as="geometry">
            <Array as="points">
              <mxPoint x="490" y="440" />
              <mxPoint x="490" y="560" />
              <mxPoint x="140" y="560" />
            </Array>
          </mxGeometry>
        </mxCell>
        <mxCell id="kzNEx_-M0deKBsbGgkpU-17" value="&lt;font style=&quot;font-size: 14px;&quot;&gt;HTTP Status 401 (Invalid or missing Token)&lt;/font&gt;" style="edgeLabel;html=1;align=center;verticalAlign=middle;resizable=0;points=[];" vertex="1" connectable="0" parent="kzNEx_-M0deKBsbGgkpU-16">
          <mxGeometry x="0.1094" relative="1" as="geometry">
            <mxPoint x="27" as="offset" />
          </mxGeometry>
        </mxCell>
        <mxCell id="kzNEx_-M0deKBsbGgkpU-13" value="&lt;font style=&quot;font-size: 16px;&quot;&gt;Validates JWT&lt;/font&gt;" style="text;html=1;strokeColor=none;fillColor=none;align=center;verticalAlign=middle;whiteSpace=wrap;rounded=0;" vertex="1" parent="1">
          <mxGeometry x="445" y="410" width="190" height="30" as="geometry" />
        </mxCell>
        <mxCell id="kzNEx_-M0deKBsbGgkpU-20" style="edgeStyle=orthogonalEdgeStyle;rounded=0;orthogonalLoop=1;jettySize=auto;html=1;entryX=0.75;entryY=1;entryDx=0;entryDy=0;exitX=0.5;exitY=1;exitDx=0;exitDy=0;" edge="1" parent="1" source="kzNEx_-M0deKBsbGgkpU-14" target="kzNEx_-M0deKBsbGgkpU-13">
          <mxGeometry relative="1" as="geometry">
            <Array as="points">
              <mxPoint x="940" y="560" />
              <mxPoint x="588" y="560" />
            </Array>
          </mxGeometry>
        </mxCell>
        <mxCell id="kzNEx_-M0deKBsbGgkpU-21" value="&lt;font style=&quot;font-size: 14px;&quot;&gt;HTTP Status 401 (Invalid or missing Token)&lt;/font&gt;" style="edgeLabel;html=1;align=center;verticalAlign=middle;resizable=0;points=[];" vertex="1" connectable="0" parent="kzNEx_-M0deKBsbGgkpU-20">
          <mxGeometry x="0.0734" y="1" relative="1" as="geometry">
            <mxPoint as="offset" />
          </mxGeometry>
        </mxCell>
        <mxCell id="kzNEx_-M0deKBsbGgkpU-14" value="&lt;font style=&quot;font-size: 16px;&quot;&gt;Validates JWT&lt;/font&gt;" style="text;html=1;strokeColor=none;fillColor=none;align=center;verticalAlign=middle;whiteSpace=wrap;rounded=0;" vertex="1" parent="1">
          <mxGeometry x="845" y="410" width="190" height="30" as="geometry" />
        </mxCell>
        <mxCell id="kzNEx_-M0deKBsbGgkpU-18" value="" style="sketch=0;pointerEvents=1;shadow=0;dashed=0;html=1;strokeColor=#82b366;labelPosition=center;verticalLabelPosition=bottom;verticalAlign=top;align=center;fillColor=#9AC7BF;shape=mxgraph.mscae.intune.end_protection;fillStyle=auto;" vertex="1" parent="1">
          <mxGeometry x="710" y="310" width="48" height="50" as="geometry" />
        </mxCell>
        <mxCell id="kzNEx_-M0deKBsbGgkpU-19" value="" style="sketch=0;pointerEvents=1;shadow=0;dashed=0;html=1;strokeColor=#b85450;labelPosition=center;verticalLabelPosition=bottom;verticalAlign=top;align=center;fillColor=#EA6B66;shape=mxgraph.mscae.oms.malware_assessment" vertex="1" parent="1">
          <mxGeometry x="280" y="500" width="49" height="50" as="geometry" />
        </mxCell>
        <mxCell id="kzNEx_-M0deKBsbGgkpU-22" value="" style="sketch=0;pointerEvents=1;shadow=0;dashed=0;html=1;strokeColor=#b85450;labelPosition=center;verticalLabelPosition=bottom;verticalAlign=top;align=center;fillColor=#EA6B66;shape=mxgraph.mscae.oms.malware_assessment" vertex="1" parent="1">
          <mxGeometry x="730" y="500" width="49" height="50" as="geometry" />
        </mxCell>
      </root>
    </mxGraphModel>
  </diagram>
</mxfile>
